<svg xmlns="http://www.w3.org/2000/svg" width="64" height="64" viewBox="0 0 64 64" role="img" aria-labelledby="title">
  <title id="title">AE mask logo</title>
  <path fill="#000000" d="M27.413 43.8 L25.417 37.28 L15.446 37.28 L13.45 43.8 L7.2 43.8 L16.866 16.3 L23.961 16.3 L33.663 43.8 L27.413 43.8 Z M22.044 26.044 Q21.852 25.391 21.54 24.396 Q21.235 23.395 20.929 22.365 Q20.623 21.328 20.432 20.561 Q20.24 21.328 19.91 22.46 Q19.587 23.587 19.299 24.606 Q19.011 25.618 18.862 26.044 L16.902 32.408 L24.039 32.408 L22.044 26.044 Z M52.876 43.8 L37.115 43.8 L37.115 16.414 L52.876 16.414 L52.876 21.172 L42.904 21.172 L42.904 27.195 L52.186 27.195 L52.186 31.947 L42.904 31.947 L42.904 39.006 L52.876 39.006 L52.876 43.8 Z"/>
  <circle cx="57.2" cy="41.2" r="2.85" fill="#000000"/>
</svg>
