<svg xmlns="http://www.w3.org/2000/svg" width="1200" height="630" viewBox="0 0 1200 630" role="img" aria-labelledby="title desc">
  <title id="title">Abdelrahman Emam Angular Frontend Developer</title>
  <desc id="desc">Social preview image for Abdelrahman Emam portfolio.</desc>
  <defs>
    <radialGradient id="blue" cx="83%" cy="18%" r="58%">
      <stop offset="0" stop-color="#60a5fa" stop-opacity=".32"/>
      <stop offset=".56" stop-color="#60a5fa" stop-opacity=".08"/>
      <stop offset="1" stop-color="#60a5fa" stop-opacity="0"/>
    </radialGradient>
    <radialGradient id="purple" cx="10%" cy="92%" r="62%">
      <stop offset="0" stop-color="#7c3aed" stop-opacity=".18"/>
      <stop offset="1" stop-color="#7c3aed" stop-opacity="0"/>
    </radialGradient>
    <filter id="softShadow" x="-20%" y="-20%" width="140%" height="140%">
      <feDropShadow dx="0" dy="18" stdDeviation="18" flood-color="#000814" flood-opacity=".45"/>
    </filter>
  </defs>
  <rect width="1200" height="630" fill="#070d1c"/>
  <rect width="1200" height="630" fill="url(#blue)"/>
  <rect width="1200" height="630" fill="url(#purple)"/>
  <circle cx="1130" cy="80" r="250" fill="#60a5fa" opacity=".08"/>
  <circle cx="-20" cy="640" r="300" fill="#7c3aed" opacity=".10"/>
  <g opacity=".18" fill="#60a5fa">
    <circle cx="60" cy="58" r="3"/><circle cx="86" cy="58" r="3"/><circle cx="112" cy="58" r="3"/><circle cx="138" cy="58" r="3"/>
    <circle cx="60" cy="82" r="3"/><circle cx="86" cy="82" r="3"/><circle cx="112" cy="82" r="3"/><circle cx="138" cy="82" r="3"/>
    <circle cx="60" cy="106" r="3"/><circle cx="86" cy="106" r="3"/><circle cx="112" cy="106" r="3"/><circle cx="138" cy="106" r="3"/>
  </g>
  <text x="112" y="288" fill="#f8fafc" font-family="Arial, Helvetica, sans-serif" font-size="74" font-weight="800">Abdelrahman Emam</text>
  <text x="112" y="160" fill="#60a5fa" font-family="Arial, Helvetica, sans-serif" font-size="30" font-weight="700">Angular Frontend Developer</text>
  <text x="112" y="360" fill="#b7c1d6" font-family="Arial, Helvetica, sans-serif" font-size="30">Responsive interfaces, REST API integrations, and client-ready projects.</text>
  <g transform="translate(112 432)">
    <rect width="188" height="56" rx="10" fill="#12243d" stroke="#2563eb" stroke-opacity=".8"/>
    <text x="42" y="36" fill="#f8fafc" font-family="Arial, Helvetica, sans-serif" font-size="22" font-weight="700">Angular</text>
    <rect x="224" width="218" height="56" rx="10" fill="#12243d" stroke="#2563eb" stroke-opacity=".8"/>
    <text x="268" y="36" fill="#f8fafc" font-family="Arial, Helvetica, sans-serif" font-size="22" font-weight="700">TypeScript</text>
    <rect x="478" width="204" height="56" rx="10" fill="#12243d" stroke="#2563eb" stroke-opacity=".8"/>
    <text x="524" y="36" fill="#f8fafc" font-family="Arial, Helvetica, sans-serif" font-size="22" font-weight="700">REST APIs</text>
  </g>
  <g transform="translate(835 178)" filter="url(#softShadow)">
    <circle cx="175" cy="135" r="154" fill="#070d1c" stroke="#3b82f6" stroke-opacity=".75" stroke-width="2"/>
    <text x="55" y="177" font-family="Arial, Helvetica, sans-serif" font-size="118" font-weight="800" letter-spacing="-5" fill="#f8fafc">AE</text>
    <circle cx="273" cy="167" r="15" fill="#60a5fa"/>
  </g>
</svg>
